<svg width="29" height="49" viewBox="0 0 29 49" fill="none" xmlns="http://www.w3.org/2000/svg">
<g opacity="0.4">
<path fill-rule="evenodd" clip-rule="evenodd" d="M14.4756 36.52L29.0001 27.4033L14.4756 48.3872V36.52ZM16.6353 37.7066V41.4985L21.2866 34.7814L16.6353 37.7066Z" fill="black"/>
<path fill-rule="evenodd" clip-rule="evenodd" d="M15.9619 17.5781L26.6843 23.6445L25.6266 25.5139L14.9043 19.4475L15.9619 17.5781Z" fill="black"/>
<path fill-rule="evenodd" clip-rule="evenodd" d="M14.4756 0L28.951 24.9149L14.4756 34.0448V0ZM16.6102 7.97335V30.1736L26.0642 24.2107L16.6102 7.97335Z" fill="black"/>
<path fill-rule="evenodd" clip-rule="evenodd" d="M14.5246 36.52L0 27.4033L14.5246 48.3872V36.52ZM12.3648 37.7066V41.4985L7.71367 34.7814L12.3648 37.7066Z" fill="black"/>
<path fill-rule="evenodd" clip-rule="evenodd" d="M12.5876 17.7822L1.86523 23.8486L2.92292 25.718L13.6453 19.6516L12.5876 17.7822Z" fill="black"/>
<path fill-rule="evenodd" clip-rule="evenodd" d="M14.4754 0L0 24.9149L14.4754 34.0448V0ZM12.3408 7.97335V30.1736L2.88674 24.2108L12.3408 7.97335Z" fill="black"/>
</g>
</svg>
