<svg width="40" height="47" viewBox="0 0 40 47" fill="none" xmlns="http://www.w3.org/2000/svg">
<path opacity="0.4" fill-rule="evenodd" clip-rule="evenodd" d="M20 47L0 35.2498V11.7502L20 0L40 11.7493V35.2498L20 47ZM3.43482 11.3496L17.9355 2.83016L17.937 2.8302C19.1599 3.74828 20.8279 3.74828 22.0506 2.8302L36.5513 11.3496C36.5222 11.6117 36.5224 11.876 36.5514 12.138L22.0498 20.6575C20.8271 19.7395 19.1591 19.7395 17.9364 20.6575L3.43482 12.1382C3.46387 11.8761 3.46387 11.6116 3.43482 11.3496ZM23.4267 23.1057L37.9436 14.4913L37.9445 14.4917C38.153 14.6482 38.3782 14.7804 38.6156 14.8859V31.9246C37.2229 32.5432 36.3889 34.0132 36.5589 35.5498L22.0573 44.0691C21.8488 43.9126 21.6238 43.7804 21.3863 43.675L21.37 26.7308C22.7626 26.1122 23.5967 24.6423 23.4267 23.1057ZM1.38539 14.9803C1.62291 14.8749 1.8479 14.7426 2.05638 14.5861L2.05656 14.5857L16.5572 23.1055C16.3873 24.6422 17.2213 26.112 18.614 26.7306V43.7693C18.3765 43.8748 18.1514 44.0071 17.9428 44.1636L3.44213 35.6441C3.61209 34.1075 2.77808 32.6376 1.38539 32.0191V14.9803Z" fill="url(#paint0_linear)"/>
<defs>
<linearGradient id="paint0_linear" x1="0" y1="23.4995" x2="40.0005" y2="23.4995" gradientUnits="userSpaceOnUse">
<stop/>
</linearGradient>
</defs>
</svg>
