<svg width="49" height="43" viewBox="0 0 49 43" fill="none" xmlns="http://www.w3.org/2000/svg">
<g opacity="0.4">
<path d="M11.0294 19.6409L11.587 38.6625L8.48905 35.1928L8.24121 19.3311L11.0294 19.6409Z" fill="black"/>
<path d="M38.6631 0.991359L35.689 2.04468L22.1198 1.549L14.127 0L38.6631 0.991359Z" fill="black"/>
<path d="M38.6626 0.991211L48.4522 23.0489L45.788 22.925L44.3009 16.5432L38.5986 4.33291L35.6865 2.04039L38.6626 0.991211Z" fill="black"/>
<path d="M48.4524 23.0497L34.6973 42.9388L34.8831 40.3985L43.4956 28.2543L45.7881 22.9258L48.4524 23.0497Z" fill="black"/>
<path d="M32.2192 41.5753L34.6976 42.9385L34.2019 43.0004L9.97559 41.4514L18.1543 40.584L32.2192 41.5753Z" fill="black"/>
<path d="M8.50945 35.1934L11.5865 38.6632L9.97555 41.4514L0 17.7207L1.75582 19.3692L8.50945 35.1934Z" fill="black"/>
<path d="M14.1269 0L11.8343 4.64699L2.41644 16.7292L0 17.7205L14.1269 0Z" fill="black"/>
<path d="M35.6888 2.04395L38.6009 4.33646L36.3084 9.2313L33.1484 6.81486L35.6888 2.04395Z" fill="black"/>
<path d="M36.5562 8.6748L44.3012 16.5437L45.7882 22.9256L33.7061 10.7195L36.5562 8.6748Z" fill="black"/>
<path d="M45.7632 22.9258L43.4954 28.2543L32.2806 36.557L32.0947 32.9633L45.7632 22.9258Z" fill="black"/>
<path d="M31.9715 12.6401L35.5651 12.5781L32.7769 33.3347L29.3691 32.2814L31.9715 12.6401Z" fill="black"/>
<path d="M14.127 0L22.1198 1.549L33.8922 6.62971L30.1126 8.98419L15.9858 2.7882L14.127 0Z" fill="black"/>
<path d="M32.0339 34.6348L34.884 40.397L34.6981 42.9374L32.2197 41.5743L29.3076 36.1838L32.0339 34.6348Z" fill="black"/>
<path d="M26.6428 34.6348L31.042 37.1132L18.1543 40.5829L9.97559 41.4504L11.5865 38.6622L26.6428 34.6348Z" fill="black"/>
<path d="M14.2516 20.0742L30.2993 32.4662L32.4059 32.9619V35.7501L29.3699 36.6795L26.148 34.8207L10.9678 23.9777L14.2516 20.0742Z" fill="black"/>
<path d="M2.41644 16.7295L9.41791 18.2165L8.67439 20.8188L1.73488 19.3938L0 17.7209L2.41644 16.7295Z" fill="black"/>
<path d="M14.1259 0L15.9847 2.7882L12.8247 16.6672L14.6835 20.4468L11.1518 23.9785L9.04515 21.0044L8.73535 18.0923L11.8333 4.64699L14.1259 0Z" fill="black"/>
<path d="M12.4541 15.3036L33.3966 7.00098L36.4326 9.16957L35.5652 12.5774L31.9715 12.8252L14.6847 20.3843L11.8965 19.9506L12.4541 15.3036Z" fill="black"/>
</g>
</svg>
