<svg width="148" height="23" viewBox="0 0 148 23" fill="none" xmlns="http://www.w3.org/2000/svg">
<rect width="147.418" height="21.3021" transform="translate(0.292969 0.848633)" fill="white"/>
<path d="M12.2261 14.4477C16.1174 13.6597 17.4048 10.829 17.4048 8.02791C17.4048 4.4973 14.8596 1.28706 10.0325 1.25747C6.78489 1.25747 3.53732 1.22852 0.292969 1.22852V4.84662H10.0325C12.4609 4.84662 13.5432 6.48069 13.5432 8.11541C13.5432 9.75012 12.4899 11.3835 10.0325 11.3835H0.292969V21.684H4.15523V14.8556H7.87043L13.8386 21.684H18.4323V21.4208L12.2261 14.4477Z" fill="#12C2E9"/>
<path d="M21.4121 1.25781V4.99365H36.7425V1.25781H21.4121ZM25.2447 17.8905V13.2804H36.3316V9.69062H21.4121V21.6843H36.7425V17.8886L25.2447 17.8905Z" fill="#12C2E9"/>
<path d="M56.6074 16.4604C55.2613 17.8024 53.2425 18.5326 51.4584 18.5326C46.3971 18.5326 44.4369 15.002 44.4079 11.6168C44.3789 8.20258 46.5138 4.52593 51.4584 4.52593C53.2431 4.52593 55.0569 5.13839 56.4023 6.45143L58.9772 3.97138C56.8706 1.8992 54.2377 0.848633 51.4584 0.848633C44.0564 0.848633 40.5747 6.27644 40.6037 11.6168C40.6327 16.9275 43.8513 22.1507 51.4584 22.1507C54.4131 22.1507 57.1344 21.1857 59.2403 19.1155L56.6074 16.4604Z" fill="#12C2E9"/>
<path d="M72.4925 0.848633C65.4123 0.848633 61.9609 6.24749 61.9609 11.6168C61.9609 16.986 65.2956 22.1507 72.4925 22.1507C79.6895 22.1507 82.937 16.8689 82.9957 11.5872C83.0544 6.24749 79.543 0.848633 72.4925 0.848633ZM79.1928 11.6457C79.1341 15.002 77.3223 18.6201 72.4925 18.6201C67.6628 18.6201 65.849 15.0309 65.7639 11.6721C65.6762 8.22896 67.6653 4.34708 72.4925 4.34708C77.3197 4.34708 79.2509 8.20258 79.1928 11.6457Z" fill="#12C2E9"/>
<path d="M101.661 1.25781L95.4589 17.1616L89.2869 1.25781H84.957L93.471 21.7718H97.4784L105.992 1.25781H101.661Z" fill="#12C2E9"/>
<path d="M109.765 1.25781V4.99364H125.095V1.25781H109.765ZM110.174 9.69062V13.2804H121.262V17.8905H109.765V21.6862H125.095V9.69062H110.174Z" fill="#12C2E9"/>
<path d="M137.967 4.84662H147.707V1.22852C144.459 1.22852 141.212 1.25747 137.967 1.25747C133.14 1.28642 130.595 4.49665 130.595 8.0279C130.595 10.829 131.885 13.6596 135.774 14.4477L129.571 21.4214V21.6846H134.165L140.133 14.8562H143.848V21.6839H147.711V11.3829H137.971C135.514 11.3829 134.46 9.74946 134.46 8.11475C134.46 6.48004 135.539 4.84662 137.967 4.84662Z" fill="#12C2E9"/>
</svg>
