<svg width="191" height="23" viewBox="0 0 191 23" fill="none" xmlns="http://www.w3.org/2000/svg">
<path d="M13.2261 14.4477C17.1174 13.6597 18.4048 10.829 18.4048 8.02791C18.4048 4.4973 15.8596 1.28706 11.0325 1.25747C7.78489 1.25747 4.53732 1.22852 1.29297 1.22852V4.84662H11.0325C13.4609 4.84662 14.5432 6.48069 14.5432 8.11541C14.5432 9.75012 13.4899 11.3835 11.0325 11.3835H1.29297V21.684H5.15523V14.8556H8.87043L14.8386 21.684H19.4323V21.4208L13.2261 14.4477Z" fill="#12C2E9" stroke="#12C2E9"/>
<path d="M30 1.40918V5.14501H45.3304V1.40918H30ZM33.8326 18.0419V13.4318H44.9195V9.84199H30V21.8357H45.3304V18.04L33.8326 18.0419Z" fill="#12C2E9" stroke="#12C2E9"/>
<path d="M72.0039 16.6118C70.6578 17.9538 68.639 18.684 66.8549 18.684C61.7936 18.684 59.8334 15.1533 59.8044 11.7681C59.7754 8.35395 61.9103 4.6773 66.8549 4.6773C68.6396 4.6773 70.4533 5.28975 71.7988 6.6028L74.3736 4.12274C72.2671 2.05057 69.6342 1 66.8549 1C59.4529 1 55.9712 6.42781 56.0002 11.7681C56.0292 17.0788 59.2478 22.3021 66.8549 22.3021C69.8096 22.3021 72.5309 21.3371 74.6368 19.2668L72.0039 16.6118Z" fill="#12C2E9" stroke="#12C2E9"/>
<path d="M95.5316 1C88.4514 1 85 6.39886 85 11.7681C85 17.1374 88.3347 22.3021 95.5316 22.3021C102.729 22.3021 105.976 17.0203 106.035 11.7385C106.093 6.39886 102.582 1 95.5316 1ZM102.232 11.7971C102.173 15.1533 100.361 18.7715 95.5316 18.7715C90.7018 18.7715 88.8881 15.1823 88.8029 11.8235C88.7152 8.38033 90.7044 4.49845 95.5316 4.49845C100.359 4.49845 102.29 8.35395 102.232 11.7971Z" fill="#12C2E9" stroke="#12C2E9"/>
<path d="M132.704 1.0293L126.502 16.9331L120.33 1.0293H116L124.514 21.5433H128.521L137.035 1.0293H132.704Z" fill="#12C2E9" stroke="#12C2E9"/>
<path d="M147 1.0293V4.76513H162.33V1.0293H147ZM147.41 9.46211V13.0519H158.498V17.662H147V21.4577H162.33V9.46211H147.41Z" fill="#12C2E9" stroke="#12C2E9"/>
<path d="M180.396 4.6181H190.135V1C186.888 1 183.64 1.02895 180.396 1.02895C175.569 1.0579 173.024 4.26814 173.024 7.79939C173.024 10.6005 174.314 13.4311 178.202 14.2192L172 21.1929V21.4561H176.594L182.562 14.6277H186.277V21.4554H190.139V11.1544H180.4C177.942 11.1544 176.889 9.52095 176.889 7.88624C176.889 6.25153 177.968 4.6181 180.396 4.6181Z" fill="#12C2E9" stroke="#12C2E9"/>
</svg>
